<svg width="20" height="20" viewBox="0 0 20 20" fill="none" xmlns="http://www.w3.org/2000/svg">
<path fill-rule="evenodd" clip-rule="evenodd" d="M7.35583 15.5475H5.28833C4.82667 15.5475 4.4525 15.1733 4.4525 14.7117V12.6433C4.4525 12.4217 4.36417 12.2092 4.2075 12.0525L2.745 10.59C2.41833 10.2633 2.41833 9.73417 2.745 9.40833L4.2225 7.93083C4.37 7.78333 4.4525 7.58417 4.4525 7.37583V5.28833C4.4525 4.82667 4.82667 4.4525 5.28833 4.4525H7.35667C7.57833 4.4525 7.79083 4.36417 7.9475 4.2075L9.41 2.745C9.73667 2.41833 10.2658 2.41833 10.5917 2.745L12.0542 4.2075C12.2108 4.36417 12.4233 4.4525 12.645 4.4525H14.7133C15.175 4.4525 15.5492 4.82667 15.5492 5.28833V7.35667C15.5492 7.57833 15.6375 7.79083 15.7942 7.9475L17.2567 9.41C17.5833 9.73667 17.5833 10.2658 17.2567 10.5917L15.7942 12.0542C15.6375 12.2108 15.5492 12.4233 15.5492 12.645V14.7133C15.5492 15.175 15.175 15.5492 14.7133 15.5492H12.645C12.4233 15.5492 12.2108 15.6375 12.0542 15.7942L10.5917 17.2567C10.265 17.5833 9.73583 17.5833 9.41 17.2567L7.9475 15.7942C7.79 15.635 7.5775 15.5475 7.35583 15.5475Z" stroke="#6E7781" stroke-width="1.5" stroke-linecap="round" stroke-linejoin="round"/>
<path d="M12.5 8.75L9.375 11.875L7.5 10" stroke="#6E7781" stroke-width="1.5" stroke-linecap="round" stroke-linejoin="round"/>
</svg>
