<svg width="24" height="24" viewBox="0 0 24 24" fill="none" xmlns="http://www.w3.org/2000/svg">
<path fill-rule="evenodd" clip-rule="evenodd" d="M18.9539 20.9999H5.0459C3.9409 20.9999 3.0459 20.1049 3.0459 18.9999V7.99991C3.0459 6.89491 3.9409 5.99991 5.0459 5.99991H18.9539C20.0589 5.99991 20.9539 6.89491 20.9539 7.99991V18.9999C20.9539 20.1049 20.0579 20.9999 18.9539 20.9999Z" stroke="#2E90FA" stroke-width="1.5" stroke-linecap="round" stroke-linejoin="round"/>
<path d="M12 8.99988C13.381 8.99988 14.5 10.1189 14.5 11.4999C14.5 12.8809 13.381 13.9999 12 13.9999C10.619 13.9999 9.5 12.8809 9.5 11.4999C9.5 10.1189 10.619 8.99988 12 8.99988" stroke="#2E90FA" stroke-width="1.5" stroke-linecap="round" stroke-linejoin="round"/>
<path d="M16.5005 18.0005C16.3695 17.6714 16.1665 17.3753 15.9065 17.1342V17.1342C15.4675 16.726 14.8925 16.4999 14.2925 16.4999C13.2925 16.4999 10.7085 16.4999 9.70849 16.4999C9.10849 16.4999 8.53449 16.727 8.09449 17.1342V17.1342C7.83449 17.3753 7.63149 17.6714 7.50049 18.0005" stroke="#2E90FA" stroke-width="1.5" stroke-linecap="round" stroke-linejoin="round"/>
<path d="M4.78223 5.99997V4.99997C4.78223 3.89497 5.67723 2.99997 6.78223 2.99997H17.2172C18.3222 2.99997 19.2172 3.89497 19.2172 4.99997V5.99997" stroke="#2E90FA" stroke-width="1.5" stroke-linecap="round" stroke-linejoin="round"/>
</svg>
