<svg width="20" height="20" viewBox="0 0 20 20" fill="none" xmlns="http://www.w3.org/2000/svg">
<path d="M15 4.16667H17.5" stroke="#0550AE" stroke-width="1.5" stroke-linecap="round" stroke-linejoin="round"/>
<path d="M2.5 4.16667H11.6667" stroke="#0550AE" stroke-width="1.5" stroke-linecap="round" stroke-linejoin="round"/>
<path d="M8.33301 10H17.4997" stroke="#0550AE" stroke-width="1.5" stroke-linecap="round" stroke-linejoin="round"/>
<path d="M2.5 10H5" stroke="#0550AE" stroke-width="1.5" stroke-linecap="round" stroke-linejoin="round"/>
<path d="M15 15.8333H17.5" stroke="#0550AE" stroke-width="1.5" stroke-linecap="round" stroke-linejoin="round"/>
<path d="M2.5 15.8333H11.6667" stroke="#0550AE" stroke-width="1.5" stroke-linecap="round" stroke-linejoin="round"/>
<path d="M14.5122 2.98816C15.163 3.63903 15.163 4.69431 14.5122 5.34518C13.8613 5.99605 12.806 5.99605 12.1551 5.34518C11.5043 4.69431 11.5043 3.63903 12.1551 2.98816C12.806 2.33728 13.8613 2.33728 14.5122 2.98816" stroke="#0550AE" stroke-width="1.5" stroke-linecap="round" stroke-linejoin="round"/>
<path d="M7.84518 8.8215C8.49605 9.47237 8.49605 10.5276 7.84518 11.1785C7.19431 11.8294 6.13903 11.8294 5.48816 11.1785C4.83728 10.5276 4.83728 9.47237 5.48816 8.8215C6.13903 8.17062 7.19431 8.17062 7.84518 8.8215" stroke="#0550AE" stroke-width="1.5" stroke-linecap="round" stroke-linejoin="round"/>
<path d="M14.5122 14.6548C15.163 15.3057 15.163 16.361 14.5122 17.0119C13.8613 17.6627 12.806 17.6627 12.1551 17.0119C11.5043 16.361 11.5043 15.3057 12.1551 14.6548C12.806 14.004 13.8613 14.004 14.5122 14.6548" stroke="#0550AE" stroke-width="1.5" stroke-linecap="round" stroke-linejoin="round"/>
</svg>
