<svg width="24" height="24" viewBox="0 0 24 24" fill="none" xmlns="http://www.w3.org/2000/svg">
<path d="M3.05493 11.0001H5C6.10457 11.0001 7 11.8955 7 13.0001V14.0001C7 15.1046 7.89543 16.0001 9 16.0001C10.1046 16.0001 11 16.8955 11 18.0001V20.9451M8 3.93558V5.50006C8 6.88077 9.11929 8.00006 10.5 8.00006H11C12.1046 8.00006 13 8.89549 13 10.0001C13 11.1046 13.8954 12.0001 15 12.0001C16.1046 12.0001 17 11.1046 17 10.0001C17 8.89549 17.8954 8.00006 19 8.00006L20.0645 8.00006M15 20.4879V18.0001C15 16.8955 15.8954 16.0001 17 16.0001H20.0645M21 12.0001C21 16.9706 16.9706 21.0001 12 21.0001C7.02944 21.0001 3 16.9706 3 12.0001C3 7.0295 7.02944 3.00006 12 3.00006C16.9706 3.00006 21 7.0295 21 12.0001Z" stroke="#424A53" stroke-width="1.5" stroke-linecap="round" stroke-linejoin="round"/>
</svg>
