<svg width="20" height="20" viewBox="0 0 20 20" fill="none" xmlns="http://www.w3.org/2000/svg">
<path d="M10.8182 11.6673H17.0863C17.777 11.6673 18.3369 11.1075 18.3369 10.4168V5.41474C18.3369 4.72409 17.777 4.16422 17.0863 4.16422H8.74954C8.0589 4.16422 7.49902 4.72409 7.49902 5.41474V10.8337" stroke="#4DD470" stroke-width="1.5" stroke-linecap="round" stroke-linejoin="round"/>
<path d="M12.0337 7.03166C12.5226 6.54728 13.3111 6.54913 13.7978 7.0358C14.2845 7.52247 14.2863 8.31095 13.8019 8.7999" stroke="#4DD470" stroke-width="1.5" stroke-linecap="round" stroke-linejoin="round"/>
<path d="M7.49909 6.66525H5.58846C5.20019 6.66525 4.81725 6.75564 4.46998 6.92929L3.9821 7.17322C3.55669 7.38592 3.20075 7.71552 2.95604 8.12336L1.66333 10.2778" stroke="#4DD470" stroke-width="1.5" stroke-linecap="round" stroke-linejoin="round"/>
<path d="M2.49683 17.5031L7.30039 15.7674C7.97083 15.5251 8.546 15.0744 8.94152 14.4813L11.4366 10.7397C11.7995 10.1955 11.7278 9.47085 11.2653 9.00833V9.00833C10.7296 8.4726 9.861 8.47251 9.32516 9.00814L7.49891 10.8337H5.83155" stroke="#4DD470" stroke-width="1.5" stroke-linecap="round" stroke-linejoin="round"/>
</svg>
