<svg width="25" height="24" viewBox="0 0 25 24" fill="none" xmlns="http://www.w3.org/2000/svg">
<path d="M13.482 14.0008H21.0038C21.8326 14.0008 22.5044 13.329 22.5044 12.5002V6.4977C22.5044 5.66892 21.8326 4.99707 21.0038 4.99707H10.9996C10.1709 4.99707 9.49902 5.66892 9.49902 6.4977V13.0004" stroke="#2E90FA" stroke-width="1.5" stroke-linecap="round" stroke-linejoin="round"/>
<path d="M14.9404 8.43803C15.5272 7.85678 16.4733 7.859 17.0573 8.443C17.6414 9.02701 17.6436 9.97318 17.0623 10.5599" stroke="#2E90FA" stroke-width="1.5" stroke-linecap="round" stroke-linejoin="round"/>
<path d="M9.49901 7.99829H7.20625C6.74033 7.99829 6.2808 8.10676 5.86408 8.31513L5.27862 8.60785C4.76812 8.86309 4.34099 9.25861 4.04734 9.74802L2.49609 12.3334" stroke="#2E90FA" stroke-width="1.5" stroke-linecap="round" stroke-linejoin="round"/>
<path d="M3.49658 21.0037L9.26085 18.9208C10.0654 18.6301 10.7556 18.0892 11.2302 17.3775L14.2243 12.8877C14.6598 12.2346 14.5738 11.365 14.0188 10.81V10.81C13.3759 10.1671 12.3336 10.167 11.6906 10.8098L9.49908 13.0004H7.49825" stroke="#2E90FA" stroke-width="1.5" stroke-linecap="round" stroke-linejoin="round"/>
</svg>
