<svg width="20" height="20" viewBox="0 0 20 20" fill="none" xmlns="http://www.w3.org/2000/svg">
<path fill-rule="evenodd" clip-rule="evenodd" d="M5 17.5H3.33333C2.87333 17.5 2.5 17.1267 2.5 16.6667V11.6667C2.5 11.2067 2.87333 10.8333 3.33333 10.8333H5C5.46 10.8333 5.83333 11.2067 5.83333 11.6667V16.6667C5.83333 17.1267 5.46 17.5 5 17.5Z" stroke="#FA4549" stroke-width="1.5" stroke-linecap="round" stroke-linejoin="round"/>
<path d="M10.8333 14.1667H12.7774C13.1383 14.1667 13.4891 14.05 13.7774 13.8333L15.7908 12.3233C16.2933 11.9467 16.9966 11.9967 17.4408 12.4408V12.4408C17.9341 12.9342 17.9341 13.7333 17.4408 14.2258L15.7133 15.9533C15.2483 16.4183 14.6549 16.7358 14.0099 16.865L11.5683 17.3533C11.0841 17.45 10.5849 17.4383 10.1058 17.3183L7.89742 16.7667C7.63325 16.7 7.36242 16.6667 7.08992 16.6667H5.83325" stroke="#FA4549" stroke-width="1.5" stroke-linecap="round" stroke-linejoin="round"/>
<path d="M10.8333 14.1667H12.0708C12.7683 14.1667 13.3333 13.6017 13.3333 12.9042V12.6517C13.3333 12.0725 12.9391 11.5675 12.3774 11.4275L10.4674 10.95C10.1566 10.8725 9.83825 10.8333 9.51825 10.8333V10.8333C8.74575 10.8333 7.98992 11.0617 7.34742 11.4908L5.83325 12.5" stroke="#FA4549" stroke-width="1.5" stroke-linecap="round" stroke-linejoin="round"/>
<path fill-rule="evenodd" clip-rule="evenodd" d="M8.88917 8.33332H16.1117C16.8783 8.33332 17.5 7.71166 17.5 6.94416V3.05582C17.5 2.28832 16.8783 1.66666 16.1108 1.66666H8.88833C8.12167 1.66666 7.5 2.28832 7.5 3.05582V6.94499C7.5 7.71166 8.12167 8.33332 8.88917 8.33332Z" stroke="#FA4549" stroke-width="1.5" stroke-linecap="round" stroke-linejoin="round"/>
<path d="M13.3841 4.11584C13.8724 4.60417 13.8724 5.39667 13.3841 5.88417C12.8958 6.37167 12.1033 6.37251 11.6158 5.88417C11.1274 5.39584 11.1274 4.60334 11.6158 4.11584C12.1041 3.62834 12.8958 3.62834 13.3841 4.11584" stroke="#FA4549" stroke-width="1.5" stroke-linecap="round" stroke-linejoin="round"/>
</svg>
