<svg width="25" height="24" viewBox="0 0 25 24" fill="none" xmlns="http://www.w3.org/2000/svg">
<path d="M16.49 17L14.49 19L16.49 21" stroke="white" stroke-width="1.5" stroke-linecap="round" stroke-linejoin="round"/>
<path d="M13.914 7.58599C14.695 8.36699 14.695 9.63299 13.914 10.414C13.133 11.195 11.867 11.195 11.086 10.414C10.305 9.63299 10.305 8.36699 11.086 7.58599C11.867 6.80499 13.133 6.80499 13.914 7.58599" stroke="white" stroke-width="1.5" stroke-linecap="round" stroke-linejoin="round"/>
<path d="M7 7.5V10.5" stroke="white" stroke-width="1.5" stroke-linecap="round" stroke-linejoin="round"/>
<path d="M18 7.5V10.5" stroke="white" stroke-width="1.5" stroke-linecap="round" stroke-linejoin="round"/>
<path d="M11.5 15H5.5C4.395 15 3.5 14.105 3.5 13V5C3.5 3.895 4.395 3 5.5 3H19.5C20.605 3 21.5 3.895 21.5 5V11" stroke="white" stroke-width="1.5" stroke-linecap="round" stroke-linejoin="round"/>
<path d="M18.5 15H19.5C20.605 15 21.5 15.895 21.5 17V17C21.5 18.105 20.605 19 19.5 19H14.5" stroke="white" stroke-width="1.5" stroke-linecap="round" stroke-linejoin="round"/>
</svg>
