<svg width="21" height="20" viewBox="0 0 21 20" fill="none" xmlns="http://www.w3.org/2000/svg">
<path d="M9.66675 13.25H3.75008C2.87508 13.25 2.16675 12.5417 2.16675 11.6667V4.08333C2.16675 3.20833 2.87508 2.5 3.75008 2.5H16.4167C17.2917 2.5 18.0001 3.20833 18.0001 4.08333V8.33333" stroke="#424A53" stroke-width="1.5" stroke-linecap="round" stroke-linejoin="round"/>
<path d="M11.4825 6.6425C12.255 7.415 12.255 8.66833 11.4825 9.44167C10.71 10.2142 9.45671 10.2142 8.68338 9.44167C7.91088 8.66917 7.91088 7.41583 8.68338 6.6425C9.45671 5.86917 10.71 5.86917 11.4825 6.6425" stroke="#424A53" stroke-width="1.5" stroke-linecap="round" stroke-linejoin="round"/>
<path d="M5.50008 10.8334H4.66675" stroke="#424A53" stroke-width="1.5" stroke-linecap="round" stroke-linejoin="round"/>
<path d="M15.5001 4.99992H14.6667" stroke="#424A53" stroke-width="1.5" stroke-linecap="round" stroke-linejoin="round"/>
<path d="M15.5001 17.4999C13.6592 17.4999 12.1667 16.0083 12.1667 14.1674C12.1667 12.3641 13.7001 10.8324 15.5034 10.8333C17.3426 10.8349 18.8334 12.3266 18.8334 14.1666C18.8334 16.0074 17.3417 17.4999 15.5001 17.4999" stroke="#424A53" stroke-width="1.5" stroke-linecap="round" stroke-linejoin="round"/>
<path d="M16.5001 14.1666H15.1667V12.8333" stroke="#424A53" stroke-width="1.5" stroke-linecap="round" stroke-linejoin="round"/>
</svg>
