<svg width="20" height="20" viewBox="0 0 20 20" fill="none" xmlns="http://www.w3.org/2000/svg">
<path d="M11.3333 16.6667H8.66667" stroke="#424A53" stroke-width="1.5" stroke-linecap="round" stroke-linejoin="round"/>
<path fill-rule="evenodd" clip-rule="evenodd" d="M14.1667 8.36001V8.33334V8.33334C14.1667 6.03251 12.3008 4.16667 10 4.16667V4.16667C7.69917 4.16667 5.83333 6.03251 5.83333 8.33334V8.33334V8.36001V10.42C5.83333 10.69 5.68083 10.9358 5.44 11.0567L5.02083 11.2658C4.4975 11.5283 4.16667 12.0633 4.16667 12.6483V12.6483C4.16667 13.5017 4.85833 14.1933 5.71167 14.1933H14.2883C15.1417 14.1933 15.8333 13.5017 15.8333 12.6483V12.6483C15.8333 12.0633 15.5025 11.5283 14.9792 11.2667L14.56 11.0575C14.3192 10.9358 14.1667 10.69 14.1667 10.42V8.36001Z" stroke="#424A53" stroke-width="1.5" stroke-linecap="round" stroke-linejoin="round"/>
</svg>
