<svg width="20" height="20" viewBox="0 0 20 20" fill="none" xmlns="http://www.w3.org/2000/svg">
<path fill-rule="evenodd" clip-rule="evenodd" d="M10 17.5V17.5C5.8575 17.5 2.5 14.1425 2.5 10V10C2.5 5.8575 5.8575 2.5 10 2.5V2.5C14.1425 2.5 17.5 5.8575 17.5 10V10C17.5 14.1425 14.1425 17.5 10 17.5Z" stroke="#6E7781" stroke-width="1.5" stroke-linecap="round" stroke-linejoin="round"/>
<path d="M10 11.0416V10.8333C10 10.1525 10.4209 9.7833 10.8425 9.49997C11.2542 9.22247 11.6667 8.8608 11.6667 8.19413C11.6667 7.2733 10.9209 6.52747 10 6.52747C9.07921 6.52747 8.33337 7.2733 8.33337 8.19413" stroke="#6E7781" stroke-width="1.5" stroke-linecap="round" stroke-linejoin="round"/>
<path d="M9.99921 13.3333C9.88421 13.3333 9.79088 13.4267 9.79171 13.5417C9.79171 13.6567 9.88504 13.75 10 13.75C10.115 13.75 10.2084 13.6567 10.2084 13.5417C10.2084 13.4267 10.115 13.3333 9.99921 13.3333" stroke="#6E7781" stroke-width="1.5" stroke-linecap="round" stroke-linejoin="round"/>
</svg>
