<svg width="24" height="24" viewBox="0 0 24 24" fill="none" xmlns="http://www.w3.org/2000/svg">
<path d="M7.5 3H6C4.34315 3 3 4.34315 3 6V7.5" stroke="#24292F" stroke-width="1.5" stroke-linecap="round" stroke-linejoin="round"/>
<path d="M3 16.5V18C3 19.6569 4.34315 21 6 21H7.5" stroke="#24292F" stroke-width="1.5" stroke-linecap="round" stroke-linejoin="round"/>
<path d="M16.5 21H18C19.6569 21 21 19.6569 21 18V16.5" stroke="#24292F" stroke-width="1.5" stroke-linecap="round" stroke-linejoin="round"/>
<path d="M21 7.5V6C21 4.34315 19.6569 3 18 3H16.5" stroke="#24292F" stroke-width="1.5" stroke-linecap="round" stroke-linejoin="round"/>
<path d="M3 12H21" stroke="#24292F" stroke-width="1.5" stroke-linecap="round" stroke-linejoin="round"/>
<path d="M17 9V8.5C17 7.67157 16.3284 7 15.5 7H8.5C7.67157 7 7 7.67157 7 8.5V9" stroke="#24292F" stroke-width="1.5" stroke-linecap="round" stroke-linejoin="round"/>
<path d="M7 15V15.5C7 16.3284 7.67157 17 8.5 17H15.5C16.3284 17 17 16.3284 17 15.5V15" stroke="#24292F" stroke-width="1.5" stroke-linecap="round" stroke-linejoin="round"/>
</svg>
