<svg width="390" height="260" viewBox="0 0 390 260" fill="none" xmlns="http://www.w3.org/2000/svg">
<g clip-path="url(#clip0_3002_5117)">
<mask id="mask0_3002_5117" style="mask-type:luminance" maskUnits="userSpaceOnUse" x="0" y="0" width="390" height="260">
<path d="M0 0H390V260H0V0Z" fill="white"/>
</mask>
<g mask="url(#mask0_3002_5117)">
<path d="M261.714 138.911C251.356 132.011 239.114 130.149 227.887 132.74C230.782 121.865 226.632 109.887 216.742 103.299C204.316 95.0226 187.535 98.3775 179.266 110.792C177.572 113.337 176.321 116.15 175.565 119.112C150.197 103.139 116.58 110.2 99.8773 135.276C82.9036 160.759 89.8209 195.186 115.328 212.176C140.835 229.166 175.269 222.282 192.242 196.799C193.912 194.289 195.378 191.648 196.626 188.904C199.597 197.662 205.371 205.544 213.669 211.071C233.614 224.356 260.542 218.973 273.815 199.046C287.087 179.121 281.659 152.196 261.714 138.911ZM200.425 152.757C200.294 152.968 200.175 153.177 200.051 153.393C200.001 153.17 199.943 152.943 199.892 152.721C200.069 152.739 200.246 152.757 200.425 152.757Z" fill="#DDF4FF"/>
<path d="M266.643 117.003C256.913 123.168 242.606 118.046 242.606 118.046C242.606 118.046 244.086 102.932 253.823 96.7742C263.554 90.61 277.854 95.7251 277.854 95.7251C277.854 95.7251 276.374 110.839 266.643 117.003Z" fill="#DDF4FF"/>
<path d="M242.736 216.58C242.553 216.508 242.405 216.37 242.32 216.194C242.235 216.017 242.22 215.816 242.277 215.628C242.334 215.441 242.46 215.282 242.629 215.184C242.798 215.085 242.999 215.054 243.19 215.096C245.074 215.528 246.97 215.906 248.875 216.231C248.976 216.248 249.072 216.285 249.158 216.339C249.245 216.394 249.319 216.465 249.378 216.548C249.437 216.632 249.479 216.726 249.501 216.825C249.523 216.925 249.526 217.028 249.509 217.128C249.473 217.331 249.359 217.512 249.191 217.631C249.023 217.749 248.815 217.797 248.612 217.763C246.677 217.433 244.751 217.049 242.838 216.613C242.804 216.603 242.769 216.593 242.736 216.58ZM254.241 218.566C254.064 218.497 253.919 218.367 253.832 218.199C253.745 218.031 253.722 217.837 253.767 217.653C253.813 217.469 253.924 217.308 254.08 217.201C254.235 217.093 254.425 217.046 254.613 217.068C256.538 217.297 258.477 217.48 260.38 217.61C260.585 217.625 260.776 217.72 260.912 217.875C261.047 218.029 261.116 218.232 261.102 218.437C261.089 218.642 260.994 218.834 260.839 218.97C260.684 219.106 260.481 219.175 260.276 219.161C258.344 219.031 256.379 218.845 254.428 218.613C254.364 218.603 254.301 218.587 254.241 218.566ZM265.875 219.343C265.705 219.277 265.564 219.154 265.476 218.994C265.388 218.835 265.359 218.65 265.393 218.471C265.428 218.293 265.524 218.132 265.665 218.017C265.806 217.902 265.983 217.84 266.165 217.842C268.093 217.867 270.022 217.834 271.949 217.743C272.051 217.738 272.152 217.753 272.248 217.788C272.344 217.822 272.432 217.875 272.508 217.944C272.583 218.013 272.644 218.095 272.687 218.188C272.731 218.28 272.755 218.38 272.76 218.482C272.78 218.911 272.449 219.275 272.021 219.296C270.101 219.389 268.125 219.422 266.144 219.394C266.052 219.395 265.96 219.378 265.875 219.343ZM277.516 218.779C277.383 218.728 277.267 218.642 277.18 218.529C277.093 218.417 277.039 218.282 277.023 218.141C277.012 218.04 277.02 217.937 277.049 217.839C277.077 217.741 277.124 217.649 277.187 217.569C277.251 217.49 277.329 217.423 277.419 217.374C277.508 217.324 277.606 217.293 277.707 217.282C279.649 217.058 281.568 216.766 283.413 216.414C283.513 216.395 283.616 216.395 283.716 216.416C283.816 216.437 283.911 216.477 283.996 216.534C284.08 216.592 284.152 216.666 284.208 216.751C284.263 216.837 284.301 216.933 284.32 217.033C284.358 217.236 284.315 217.445 284.2 217.616C284.084 217.786 283.906 217.904 283.703 217.943C281.775 218.31 279.833 218.606 277.882 218.829C277.758 218.84 277.633 218.823 277.516 218.779ZM288.952 216.573C288.838 216.53 288.737 216.46 288.655 216.37C288.573 216.28 288.514 216.172 288.483 216.055C288.428 215.856 288.454 215.644 288.555 215.464C288.657 215.284 288.825 215.152 289.024 215.096C290.872 214.579 292.694 213.976 294.486 213.288C294.678 213.215 294.892 213.221 295.08 213.305C295.268 213.388 295.415 213.543 295.489 213.736C295.642 214.136 295.441 214.585 295.041 214.741C293.205 215.447 291.336 216.064 289.441 216.593C289.28 216.64 289.108 216.633 288.952 216.573ZM299.799 212.375C299.619 212.307 299.472 212.173 299.386 212.001C299.293 211.817 299.276 211.603 299.34 211.407C299.405 211.211 299.544 211.048 299.728 210.955C301.431 210.086 303.084 209.122 304.679 208.067C304.764 208.011 304.859 207.972 304.959 207.952C305.06 207.932 305.163 207.933 305.263 207.953C305.363 207.973 305.458 208.013 305.542 208.07C305.627 208.127 305.7 208.2 305.756 208.285C305.87 208.457 305.911 208.668 305.87 208.87C305.829 209.072 305.709 209.25 305.537 209.364C303.893 210.452 302.189 211.447 300.433 212.343C300.336 212.391 300.229 212.419 300.12 212.425C300.01 212.43 299.901 212.413 299.799 212.375ZM309.472 205.944C309.347 205.896 309.236 205.815 309.151 205.71C309.066 205.606 309.009 205.481 308.987 205.348C308.965 205.215 308.977 205.079 309.024 204.953C309.07 204.826 309.148 204.714 309.251 204.626C310.703 203.388 312.079 202.063 313.371 200.658C313.441 200.583 313.524 200.522 313.616 200.479C313.709 200.436 313.809 200.412 313.911 200.408C314.013 200.403 314.114 200.419 314.21 200.454C314.306 200.489 314.394 200.543 314.469 200.612C314.544 200.681 314.605 200.764 314.648 200.856C314.691 200.949 314.715 201.049 314.72 201.151C314.724 201.253 314.708 201.355 314.673 201.45C314.638 201.546 314.585 201.634 314.516 201.709C313.181 203.162 311.759 204.531 310.257 205.81C310.027 206.001 309.727 206.042 309.472 205.944ZM317.334 197.402C317.223 197.359 317.123 197.292 317.042 197.204C316.962 197.117 316.902 197.013 316.868 196.899C316.834 196.785 316.827 196.664 316.847 196.547C316.867 196.43 316.913 196.319 316.983 196.222C318.098 194.672 319.127 193.06 320.063 191.396C320.113 191.306 320.18 191.228 320.26 191.165C320.341 191.101 320.433 191.055 320.531 191.027C320.63 191 320.732 190.993 320.834 191.005C320.935 191.018 321.033 191.051 321.122 191.101C321.211 191.152 321.289 191.219 321.352 191.299C321.415 191.38 321.462 191.472 321.489 191.57C321.517 191.669 321.524 191.772 321.512 191.873C321.5 191.975 321.467 192.073 321.417 192.162C320.452 193.878 319.392 195.539 318.242 197.137C318.14 197.273 317.996 197.373 317.832 197.421C317.668 197.469 317.494 197.462 317.334 197.402ZM323.12 187.312L323.068 187.292C322.976 187.249 322.892 187.188 322.823 187.113C322.754 187.038 322.701 186.95 322.666 186.854C322.631 186.758 322.615 186.656 322.62 186.554C322.624 186.452 322.649 186.352 322.692 186.26C323.501 184.518 324.232 182.742 324.885 180.936C324.918 180.838 324.97 180.747 325.038 180.67C325.106 180.592 325.189 180.528 325.282 180.483C325.375 180.438 325.477 180.412 325.58 180.406C325.683 180.401 325.787 180.416 325.884 180.451C325.981 180.486 326.071 180.54 326.147 180.61C326.223 180.68 326.285 180.765 326.328 180.859C326.371 180.953 326.394 181.055 326.397 181.158C326.4 181.261 326.383 181.364 326.345 181.461C326.199 181.871 326.041 182.291 325.882 182.707C325.334 184.13 324.739 185.534 324.098 186.917C324.014 187.094 323.867 187.232 323.686 187.305C323.505 187.379 323.303 187.381 323.12 187.312ZM327.012 176.339C326.837 176.271 326.692 176.141 326.604 175.975C326.517 175.808 326.492 175.615 326.536 175.432C326.993 173.521 327.321 171.623 327.508 169.794C327.529 169.589 327.63 169.401 327.79 169.271C327.949 169.14 328.154 169.079 328.358 169.099C328.46 169.11 328.558 169.14 328.648 169.189C328.737 169.237 328.817 169.303 328.881 169.382C328.945 169.462 328.993 169.553 329.022 169.651C329.051 169.748 329.06 169.851 329.049 169.952C328.853 171.852 328.514 173.815 328.042 175.793C327.994 175.994 327.868 176.167 327.692 176.275C327.517 176.382 327.305 176.416 327.105 176.368C327.077 176.36 327.042 176.351 327.012 176.339ZM328.15 164.781C328.011 164.727 327.89 164.634 327.802 164.513C327.714 164.392 327.662 164.249 327.653 164.099C327.543 162.166 327.262 160.279 326.814 158.491C326.764 158.291 326.795 158.08 326.9 157.903C327.006 157.726 327.177 157.598 327.377 157.547C327.476 157.522 327.579 157.517 327.68 157.532C327.781 157.547 327.877 157.581 327.965 157.633C328.052 157.686 328.129 157.755 328.189 157.837C328.25 157.918 328.294 158.011 328.319 158.11C328.79 159.991 329.087 161.974 329.204 164.008C329.21 164.109 329.196 164.212 329.162 164.308C329.129 164.404 329.076 164.493 329.008 164.569C328.94 164.645 328.858 164.707 328.766 164.752C328.674 164.796 328.575 164.822 328.473 164.828C328.358 164.837 328.25 164.819 328.15 164.781ZM304.696 154.824C304.512 154.753 304.361 154.615 304.276 154.437C304.19 154.259 304.176 154.055 304.235 153.867C304.297 153.67 304.434 153.506 304.616 153.41C304.799 153.314 305.012 153.295 305.209 153.356C306.928 153.896 308.831 154.18 310.713 154.177C310.917 154.182 311.11 154.266 311.252 154.412C311.393 154.558 311.473 154.753 311.472 154.956C311.472 155.159 311.392 155.354 311.25 155.5C311.108 155.645 310.914 155.729 310.711 155.733C308.673 155.736 306.61 155.425 304.741 154.841C304.727 154.833 304.708 154.829 304.696 154.824ZM299.634 152.041C299.542 152.005 299.458 151.953 299.384 151.886C297.477 150.107 296.732 147.986 297.293 145.917C297.346 145.718 297.477 145.549 297.655 145.446C297.833 145.344 298.045 145.316 298.243 145.369C298.342 145.395 298.434 145.441 298.515 145.504C298.595 145.566 298.663 145.644 298.714 145.732C298.764 145.821 298.797 145.919 298.81 146.02C298.822 146.121 298.815 146.224 298.788 146.322C298.273 148.229 299.402 149.783 300.438 150.751C300.57 150.873 300.655 151.038 300.679 151.216C300.702 151.394 300.663 151.575 300.568 151.728C300.473 151.88 300.328 151.995 300.158 152.052C299.987 152.11 299.802 152.106 299.634 152.041ZM316.168 154.808C316.058 154.767 315.959 154.7 315.879 154.615C315.798 154.529 315.739 154.426 315.704 154.313C315.643 154.117 315.663 153.904 315.758 153.721C315.853 153.538 316.017 153.401 316.213 153.338C317.99 152.782 319.665 151.941 321.172 150.847C321.254 150.787 321.348 150.744 321.447 150.72C321.546 150.696 321.649 150.692 321.75 150.708C321.851 150.724 321.947 150.76 322.034 150.813C322.121 150.866 322.197 150.937 322.257 151.019C322.317 151.102 322.36 151.196 322.383 151.295C322.407 151.394 322.411 151.497 322.395 151.598C322.379 151.699 322.343 151.796 322.29 151.883C322.236 151.97 322.166 152.046 322.084 152.106C320.441 153.299 318.615 154.217 316.677 154.822C316.506 154.879 316.326 154.869 316.168 154.808ZM325.291 153.568C325.109 153.498 324.96 153.363 324.873 153.189C324.041 151.5 323.012 149.916 321.809 148.469C321.744 148.391 321.694 148.3 321.664 148.203C321.633 148.106 321.623 148.003 321.632 147.902C321.641 147.8 321.67 147.701 321.718 147.611C321.765 147.521 321.83 147.441 321.909 147.375C321.987 147.31 322.077 147.261 322.174 147.23C322.271 147.2 322.373 147.189 322.475 147.198C322.576 147.207 322.675 147.236 322.765 147.283C322.855 147.331 322.935 147.395 323.001 147.473C324.281 149.015 325.376 150.702 326.264 152.499C326.454 152.882 326.298 153.352 325.913 153.542C325.709 153.638 325.485 153.643 325.291 153.568ZM301.471 142.524C301.335 142.471 301.216 142.38 301.128 142.263C301.041 142.146 300.988 142.006 300.976 141.86C300.964 141.714 300.994 141.568 301.061 141.438C301.128 141.308 301.231 141.2 301.357 141.125C303.08 140.121 305.081 139.589 307.304 139.546C307.406 139.544 307.508 139.562 307.602 139.599C307.697 139.637 307.784 139.692 307.857 139.763C307.931 139.834 307.989 139.919 308.03 140.012C308.07 140.106 308.092 140.206 308.093 140.308C308.095 140.41 308.077 140.511 308.04 140.606C308.003 140.701 307.947 140.788 307.876 140.861C307.805 140.935 307.721 140.994 307.627 141.034C307.534 141.075 307.433 141.097 307.331 141.099C305.377 141.137 303.631 141.596 302.14 142.467C302.04 142.526 301.928 142.562 301.812 142.572C301.696 142.582 301.579 142.565 301.471 142.524ZM325.446 148.094C325.382 148.068 325.321 148.036 325.264 147.996C325.182 147.936 325.112 147.86 325.059 147.772C325.006 147.685 324.97 147.588 324.955 147.487C324.939 147.386 324.944 147.283 324.969 147.183C324.993 147.084 325.037 146.991 325.097 146.908C326.155 145.464 327.061 143.806 327.789 141.981C327.864 141.791 328.012 141.639 328.198 141.557C328.385 141.475 328.597 141.47 328.788 141.542L328.797 141.545C328.988 141.622 329.141 141.771 329.222 141.96C329.304 142.149 329.306 142.363 329.23 142.555C328.452 144.502 327.484 146.277 326.348 147.826C326.247 147.964 326.105 148.064 325.942 148.112C325.779 148.161 325.605 148.154 325.446 148.094ZM317.882 144.732C317.82 144.707 317.761 144.675 317.706 144.636C316.147 143.517 314.479 142.637 312.767 142.033C312.573 141.964 312.415 141.821 312.326 141.635C312.238 141.449 312.227 141.235 312.296 141.041C312.33 140.945 312.382 140.856 312.451 140.78C312.519 140.704 312.601 140.642 312.693 140.598C312.786 140.554 312.885 140.529 312.987 140.524C313.089 140.519 313.191 140.533 313.287 140.568C315.136 141.221 316.938 142.169 318.614 143.375C318.962 143.627 319.041 144.11 318.792 144.46C318.58 144.752 318.203 144.855 317.882 144.732ZM329.848 137.397C329.678 137.331 329.536 137.207 329.448 137.047C329.36 136.887 329.331 136.701 329.366 136.522C329.711 134.753 329.943 132.84 330.056 130.842C330.068 130.636 330.161 130.443 330.314 130.305C330.468 130.168 330.67 130.097 330.876 130.107C331.081 130.119 331.274 130.213 331.411 130.366C331.548 130.52 331.619 130.722 331.607 130.928C331.492 132.998 331.251 134.978 330.89 136.817C330.851 137.02 330.733 137.198 330.563 137.314C330.392 137.429 330.182 137.472 329.98 137.433C329.935 137.426 329.891 137.413 329.848 137.397ZM330.568 125.786C330.428 125.732 330.306 125.638 330.217 125.516C330.129 125.394 330.078 125.248 330.071 125.098C329.981 123.177 329.815 121.26 329.573 119.352C329.547 119.147 329.604 118.941 329.73 118.778C329.857 118.615 330.042 118.508 330.246 118.482C330.451 118.456 330.657 118.513 330.82 118.64C330.982 118.766 331.088 118.952 331.114 119.156C331.365 121.177 331.537 123.149 331.622 125.023C331.628 125.152 331.601 125.28 331.545 125.397C331.489 125.513 331.405 125.613 331.301 125.689C331.196 125.765 331.075 125.813 330.947 125.83C330.819 125.847 330.689 125.832 330.568 125.786ZM329.04 114.247C328.923 114.203 328.818 114.13 328.735 114.036C328.652 113.941 328.593 113.828 328.563 113.706C328.105 111.854 327.53 110.032 326.84 108.254C326.764 108.061 326.769 107.847 326.852 107.658C326.935 107.469 327.089 107.321 327.282 107.246C327.376 107.208 327.478 107.19 327.58 107.192C327.682 107.194 327.782 107.216 327.876 107.257C327.969 107.298 328.054 107.357 328.124 107.431C328.195 107.505 328.25 107.592 328.287 107.687C329.002 109.529 329.598 111.415 330.071 113.334C330.105 113.471 330.1 113.616 330.058 113.751C330.016 113.886 329.937 114.007 329.831 114.101C329.725 114.195 329.595 114.259 329.456 114.284C329.316 114.31 329.173 114.297 329.04 114.247ZM324.848 103.419C324.674 103.353 324.53 103.226 324.443 103.062C323.534 101.379 322.532 99.7487 321.441 98.1782C321.383 98.0944 321.342 97.9999 321.32 97.9002C321.298 97.8005 321.297 97.6975 321.315 97.597C321.333 97.4966 321.371 97.4007 321.426 97.3149C321.481 97.2291 321.553 97.155 321.637 97.097C321.988 96.8517 322.473 96.9367 322.716 97.2911C323.841 98.9093 324.874 100.59 325.809 102.325C325.858 102.415 325.888 102.513 325.899 102.615C325.909 102.716 325.899 102.819 325.87 102.917C325.841 103.014 325.792 103.106 325.727 103.185C325.663 103.264 325.583 103.329 325.493 103.377C325.395 103.431 325.287 103.462 325.175 103.469C325.064 103.476 324.952 103.459 324.848 103.419ZM206.452 51.5316C206.306 51.4756 206.181 51.3769 206.092 51.2485C206.003 51.12 205.954 50.9676 205.953 50.8114C205.952 50.6055 206.032 50.4074 206.176 50.2604C206.321 50.1134 206.517 50.0293 206.723 50.0266C208.407 50.0136 210.383 50.0816 212.603 50.229C212.705 50.2358 212.804 50.2626 212.895 50.3078C212.987 50.3531 213.068 50.4159 213.135 50.4927C213.202 50.5695 213.254 50.6587 213.286 50.7553C213.319 50.8519 213.332 50.954 213.325 51.0558C213.311 51.2613 213.217 51.453 213.062 51.5888C212.907 51.7246 212.704 51.7935 212.498 51.7803C210.318 51.6377 208.377 51.5697 206.734 51.5844C206.638 51.5846 206.542 51.5666 206.452 51.5316ZM318.236 93.8539C318.115 93.8078 318.008 93.7319 317.925 93.6334C316.676 92.1766 315.365 90.7756 313.993 89.4344C313.92 89.3631 313.862 89.2781 313.822 89.1843C313.782 89.0906 313.761 88.9898 313.76 88.8879C313.759 88.786 313.779 88.6849 313.817 88.5904C313.855 88.4959 313.911 88.4098 313.983 88.3372C314.054 88.2641 314.139 88.2058 314.232 88.1656C314.326 88.1254 314.426 88.1041 314.528 88.103C314.63 88.1018 314.731 88.1209 314.826 88.159C314.92 88.1971 315.006 88.2535 315.079 88.325C316.482 89.6992 317.825 91.1331 319.105 92.6228C319.217 92.7542 319.282 92.9192 319.29 93.0917C319.298 93.2643 319.248 93.4346 319.149 93.5757C319.049 93.7169 318.905 93.8209 318.74 93.8712C318.575 93.9216 318.397 93.9155 318.236 93.8539ZM218.078 52.2401C217.918 52.1786 217.783 52.0658 217.694 51.9195C217.605 51.7731 217.567 51.6014 217.585 51.431C217.596 51.3295 217.626 51.2311 217.675 51.1414C217.724 51.0517 217.79 50.9726 217.869 50.9085C217.949 50.8445 218.04 50.7968 218.138 50.7682C218.236 50.7396 218.339 50.7307 218.44 50.742C220.307 50.9418 222.258 51.1814 224.244 51.4583C224.345 51.4724 224.443 51.5063 224.531 51.558C224.619 51.6097 224.696 51.6783 224.757 51.7597C224.818 51.8412 224.863 51.9339 224.889 52.0327C224.914 52.1315 224.92 52.2343 224.906 52.3354C224.892 52.4366 224.858 52.534 224.807 52.6222C224.755 52.7103 224.687 52.7874 224.605 52.8491C224.524 52.9107 224.431 52.9557 224.332 52.9815C224.234 53.0073 224.131 53.0133 224.029 52.9993C222.114 52.7333 220.194 52.4966 218.271 52.2895C218.205 52.2811 218.14 52.2645 218.078 52.2401ZM309.945 85.696C309.865 85.6652 309.79 85.6213 309.724 85.566C308.249 84.3305 306.735 83.1437 305.182 82.0075C305.016 81.8857 304.906 81.7031 304.874 81.4997C304.842 81.2963 304.893 81.0887 305.014 80.9224C305.135 80.7563 305.318 80.6451 305.521 80.6132C305.724 80.5813 305.931 80.6315 306.098 80.7525C307.679 81.9086 309.221 83.1165 310.723 84.3743C310.863 84.4925 310.958 84.6568 310.989 84.838C311.02 85.0192 310.986 85.2056 310.893 85.364C310.8 85.5225 310.653 85.6428 310.48 85.7036C310.306 85.7644 310.117 85.7617 309.945 85.696ZM229.617 53.8274C229.438 53.7584 229.29 53.6252 229.203 53.4536C229.116 53.2819 229.095 53.0841 229.146 52.8983C229.196 52.7125 229.314 52.5521 229.476 52.4481C229.638 52.3441 229.833 52.3039 230.022 52.3354C231.919 52.6478 233.854 52.9928 235.775 53.3594C235.977 53.3986 236.156 53.5163 236.271 53.6866C236.387 53.8569 236.431 54.0661 236.393 54.2685C236.354 54.4709 236.237 54.6497 236.066 54.7659C235.896 54.8821 235.687 54.9262 235.484 54.8886C233.583 54.527 231.677 54.1878 229.767 53.8711C229.716 53.8612 229.666 53.8465 229.617 53.8274ZM241.058 56.0075C240.885 55.9412 240.741 55.8148 240.653 55.6513C240.565 55.4878 240.539 55.2982 240.579 55.117C240.623 54.9155 240.744 54.7395 240.917 54.6276C241.091 54.5158 241.301 54.4772 241.503 54.5203C243.404 54.9285 245.32 55.3631 247.2 55.8159C247.3 55.8393 247.393 55.8821 247.476 55.942C247.559 56.0018 247.629 56.0776 247.682 56.1647C247.736 56.2519 247.771 56.3487 247.786 56.4497C247.802 56.5506 247.797 56.6537 247.773 56.7528C247.725 56.9531 247.599 57.1261 247.424 57.2338C247.248 57.3416 247.037 57.3752 246.837 57.3274C244.954 56.876 243.067 56.4464 241.175 56.0387C241.135 56.033 241.096 56.0225 241.058 56.0075ZM300.565 78.8099C300.515 78.7903 300.467 78.7662 300.422 78.738C298.802 77.6936 297.157 76.6892 295.487 75.7254C295.309 75.6224 295.179 75.453 295.126 75.2542C295.072 75.0555 295.099 74.8436 295.202 74.6651C295.253 74.5764 295.321 74.4987 295.401 74.4363C295.482 74.3739 295.575 74.3282 295.674 74.3016C295.772 74.275 295.875 74.2682 295.976 74.2815C296.078 74.2948 296.175 74.3279 296.264 74.3791C297.958 75.3534 299.626 76.3714 301.267 77.4319C301.44 77.5439 301.561 77.7198 301.604 77.9212C301.648 78.1226 301.61 78.3329 301.498 78.5061C301.4 78.6553 301.254 78.7666 301.085 78.8218C300.915 78.8771 300.732 78.8728 300.565 78.8099ZM252.383 58.7249C252.205 58.6556 252.058 58.5228 251.97 58.352C251.883 58.1812 251.862 57.9843 251.911 57.7989C251.964 57.5999 252.093 57.43 252.271 57.3264C252.449 57.2228 252.66 57.194 252.86 57.2464C254.742 57.7453 256.618 58.2681 258.487 58.8146C258.683 58.8748 258.847 59.0095 258.943 59.1896C259.04 59.3697 259.062 59.5807 259.005 59.777C258.948 59.9733 258.815 60.139 258.636 60.2385C258.458 60.3379 258.247 60.363 258.05 60.3083C256.193 59.7668 254.329 59.2477 252.46 58.7509C252.436 58.7418 252.408 58.7344 252.383 58.7249ZM290.483 72.9855C290.455 72.9754 290.428 72.9639 290.402 72.9508C288.687 72.0637 286.955 71.2116 285.205 70.395C285.113 70.3519 285.03 70.2908 284.961 70.2154C284.892 70.14 284.838 70.0516 284.804 69.9555C284.769 69.8594 284.754 69.7574 284.759 69.6553C284.764 69.5533 284.79 69.4533 284.833 69.3611C284.876 69.2684 284.937 69.1851 285.013 69.1161C285.088 69.047 285.176 68.9936 285.272 68.9588C285.368 68.924 285.47 68.9086 285.572 68.9135C285.674 68.9183 285.774 68.9434 285.867 68.9871C287.634 69.8148 289.385 70.6763 291.119 71.5711C291.301 71.666 291.439 71.8296 291.501 72.0258C291.563 72.2221 291.545 72.435 291.451 72.618C291.363 72.7875 291.216 72.9187 291.037 72.9865C290.858 73.0543 290.661 73.0539 290.483 72.9855ZM263.557 61.9905C263.372 61.9189 263.221 61.7793 263.135 61.6002C263.05 61.421 263.036 61.2159 263.096 61.0268C263.159 60.8308 263.297 60.6676 263.479 60.5732C263.662 60.4787 263.875 60.4606 264.071 60.5228C265.926 61.118 267.773 61.7386 269.61 62.3844C269.804 62.4549 269.962 62.5984 270.051 62.7842C270.14 62.97 270.152 63.1833 270.085 63.378C270.017 63.5724 269.875 63.7319 269.689 63.8214C269.504 63.911 269.29 63.9232 269.096 63.8556C267.272 63.213 265.438 62.5973 263.596 62.0087C263.585 62.0009 263.572 61.9966 263.557 61.9905ZM279.939 68.0463L279.912 68.0355C278.133 67.2803 276.342 66.5553 274.538 65.861C274.346 65.7864 274.191 65.6385 274.107 65.4499C274.024 65.2613 274.019 65.0473 274.093 64.8548C274.129 64.7598 274.184 64.6728 274.254 64.599C274.324 64.5252 274.408 64.4659 274.501 64.4245C274.594 64.3832 274.695 64.3606 274.796 64.3581C274.898 64.3556 274.999 64.3731 275.094 64.4098L275.097 64.4107C276.917 65.1122 278.724 65.8444 280.519 66.6068C280.613 66.6466 280.698 66.7045 280.769 66.7772C280.84 66.8499 280.897 66.936 280.935 67.0305C280.973 67.1251 280.992 67.2262 280.991 67.328C280.99 67.4299 280.968 67.5306 280.928 67.6243C280.85 67.809 280.704 67.9563 280.519 68.035C280.335 68.1138 280.127 68.1178 279.939 68.0463Z" fill="white"/>
<path fill-rule="evenodd" clip-rule="evenodd" d="M185.532 91.0087C183.299 88.3515 178.005 87.8865 174.544 91.3176C172.308 93.5341 171.941 96.0566 172.385 97.8159C172.407 97.9026 172.426 97.9901 172.443 98.0785L181.757 146.761C183.923 156.682 191.803 164.515 201.861 166.672L250.971 175.906L250.984 175.908L251.015 175.914C253.565 176.42 256.285 175.379 257.869 173.808C261.126 170.58 261.126 165.974 257.869 162.747L185.817 91.3176C185.718 91.2188 185.622 91.1157 185.532 91.0087ZM163.353 92.9322L127.671 128.614C119.367 136.918 119.367 149.593 127.671 157.897L183.953 214.179C185.764 215.99 188.699 215.99 190.51 214.179C190.564 214.125 190.617 214.07 190.667 214.014L194.905 218.206L198.367 215.644L218.803 217.276L221.072 214.754C222.894 216.329 225.65 216.251 227.379 214.522L257.336 184.564C254.824 185.334 252.05 185.568 249.237 185.015L200.092 175.775C200.056 175.768 200.021 175.761 199.985 175.753C186.351 172.857 175.615 162.236 172.682 148.668C172.674 148.632 172.667 148.596 172.66 148.56L163.358 99.9401C162.821 97.7149 162.8 95.3108 163.353 92.9322Z" fill="#54AEFF"/>
<path d="M196.318 50.3624L196.43 55.617L168.101 57.7356L196.318 50.3624Z" fill="white"/>
<path d="M195.827 61.4939L192.026 65.2318L169.375 57.619L195.827 61.4939Z" fill="#54AEFF"/>
<path d="M168.101 57.7356L209.084 65.9104L199.674 54.8405L168.101 57.7356Z" fill="#54AEFF"/>
<path d="M196.319 50.3629L168.102 57.736L190.71 42.8783L196.319 50.3629ZM299.526 219.301C290.323 219.472 287.887 220.2 278.334 219.901C273.783 219.943 268.926 219.815 264.478 219.729C262.363 219.173 258.643 219.729 256.135 219.258L255.172 219.558C254.312 219.387 253.305 219.301 252.43 219.472L252.488 219.558C251.205 219.344 249.747 219.472 249.119 219.344L249.178 219.43L247.617 219.387L247.879 219.515C245.633 219.258 243.329 219.258 241.287 219.344L241.462 218.959C237.101 219.387 235.511 218.616 231.588 219.087L231.646 219.173C226.672 218.188 223.799 219.858 218.68 218.916C219.321 219.044 218.402 219.087 218.461 219.216C216.098 219.13 213.589 219.044 213.545 218.316C211.824 218.316 212.145 218.53 211.926 218.83C211.941 218.53 210.439 218.359 209.097 218.359L209.71 218.488L205.859 218.359L206.617 217.76C204.575 217.931 206.093 218.488 204.152 218.359L204.182 217.845C201.367 217.931 199.704 218.702 196.977 219.087C185.629 219.301 173.436 218.016 162.89 218.916L162.424 219.301C162.22 219.858 159.507 218.488 159.113 219.001L157.888 218.744C157.538 218.83 156.808 218.959 157.421 219.087C156.283 219.13 156.254 219.001 155.438 218.873L154.212 219.216C149.734 219.472 145.928 218.83 141.216 218.959C135.558 219.644 124.896 219.001 118.755 218.659C110.121 217.845 100.086 220.029 91.2471 219.087C90.9554 219.173 90.2118 219.001 90.2261 218.916L82.1315 219.001C82.1315 219.001 42.9113 219.216 72.709 214.634L72.505 214.506C76.9388 214.206 79.7247 214.163 82.7732 214.763C83.2547 214.035 86.405 214.677 87.4406 214.463L87.3384 214.42C90.0368 214.977 92.8955 213.949 95.5063 214.463C95.404 214.42 95.346 214.206 94.748 214.206C96.6438 214.292 99.2399 214.463 99.3859 214.035C103.922 214.163 110.237 213.949 113.14 214.634L112.936 214.506C114.584 214.977 115.08 214.591 116.932 214.805C117.034 214.763 117.166 214.72 117.136 214.677C118.945 215.148 122.402 214.763 123.845 214.934L123.933 214.634L127.521 214.72L126.179 214.763C126.646 215.533 128.892 214.249 131.488 214.763C133.924 214.677 136.433 216.39 138.956 216.004C140.166 216.39 137.891 215.405 139.7 215.705C139.758 215.277 138.854 215.448 139.321 215.105C141.086 215.319 142.223 214.677 144.411 214.977L144.499 214.677C147.342 215.277 149.866 214.249 151.762 214.805C154.694 215.062 153.731 213.863 156.794 214.463L157.99 214.035C159.302 213.949 158.923 214.549 160.382 214.334C160.294 214.077 162.22 214.12 161.359 213.863C164.641 213.435 168.025 214.463 172.356 213.735C173.29 214.249 175.478 213.949 176.178 214.334C176.294 214.12 180.539 214.292 178.103 213.778C177.899 213.735 177.52 213.735 177.549 213.821L177.257 213.521C179.722 212.921 181.735 213.863 184.185 213.735C183.456 213.821 182.493 213.821 183.135 214.035L185.41 213.992L184.944 213.735L188.327 213.564L187.86 213.906C189.509 213.735 190.092 213.178 191.959 213.649C192.805 213.906 190.398 214.077 192.134 214.206C194.351 213.992 197.662 213.649 200.477 213.564C200.214 213.949 200.973 213.906 201.76 213.992L201.848 213.692C204.838 214.12 202.942 213.007 205.917 213.349L205.655 213.135L206.442 213.821C209.126 214.463 207.887 213.178 210.862 214.035C209.681 213.992 210.308 214.72 211.751 214.591L211.387 214.292C212.189 214.377 212.452 214.506 212.991 214.42C212.51 214.249 212.743 213.992 213.925 214.035L213.137 213.649L215.368 214.206C217.09 213.863 219.817 214.292 220.532 213.863C220.532 213.863 224.237 213.649 225.083 214.12C224.338 213.821 226.381 213.692 225.797 213.349C226.76 213.692 229.589 213.949 230.727 213.606L230.508 213.564C234.709 213.178 237.684 214.077 241.447 213.606C241.272 213.992 243.27 213.778 242.775 214.249C246.669 214.72 249.877 213.264 251.292 214.763C253.072 214.848 253.393 214.42 254.312 214.334L253.889 214.249C257.214 214.377 258.177 214.377 260.641 214.334C261.867 214.463 262.071 215.148 264.273 214.977C263.559 214.72 264.463 214.763 265.28 214.763C264.755 214.72 264.594 214.634 265.674 214.42C265.819 214.506 266.067 214.549 266.286 214.591C266.301 214.591 266.344 214.549 266.315 214.506C267.687 214.591 267.453 214.677 266.811 214.72C266.84 214.763 266.796 214.805 266.592 214.891C268.022 214.549 270.574 214.934 270.749 214.463C274.892 214.591 277.852 215.062 281.294 215.234C281.688 214.977 280.872 214.763 279.88 214.677L282.33 214.763C282.315 214.42 280.93 214.549 280.171 214.506C283.089 213.949 286.18 215.062 289.594 214.549L290.308 214.805L290.512 214.763C290.498 214.891 291.271 215.105 291.767 215.148C292.248 214.848 291.737 214.463 293.43 214.463C294.771 214.163 297.222 214.591 298.972 214.763C298.024 214.805 298.33 214.977 298.738 215.105C299.585 215.105 300.066 214.805 300.722 214.934L300.81 214.549C300.474 214.934 303.012 214.977 303.333 215.105C303.814 214.805 302.02 214.848 301.816 214.634C305.2 214.677 303.508 214.634 306.906 214.677C308.715 214.977 306.571 215.062 307.446 215.405C309.036 215.491 310.596 215.747 312.434 215.533L311.851 215.876C314.855 216.175 316.649 216.133 318.662 215.747C341.007 218.659 323.373 219.729 323.373 219.729C314.535 220.628 309.998 219.601 299.526 219.301Z" fill="#54AEFF"/>
<path d="M288.311 133.351C286.386 134.462 283.924 133.803 282.813 131.877C281.701 129.952 282.361 127.49 284.286 126.379C286.211 125.267 288.673 125.927 289.784 127.852C290.896 129.777 290.236 132.239 288.311 133.351Z" fill="white"/>
<path d="M96.6334 180.267C99.2659 180.267 101.4 182.401 101.4 185.033C101.4 187.666 99.2659 189.8 96.6334 189.8C94.0008 189.8 91.8667 187.666 91.8667 185.033C91.8667 182.401 94.0008 180.267 96.6334 180.267Z" fill="white"/>
<path d="M139.745 87.9667C137.953 87.9667 136.5 89.4198 136.5 91.2123C136.5 93.0049 137.953 94.458 139.745 94.458C141.538 94.458 142.991 93.0049 142.991 91.2123C142.991 89.4198 141.538 87.9667 139.745 87.9667Z" fill="white"/>
<path d="M119.597 180.217C117.933 180.217 116.583 181.566 116.583 183.231C116.583 184.895 117.933 186.245 119.597 186.245C121.261 186.245 122.611 184.895 122.611 183.231C122.611 181.566 121.261 180.217 119.597 180.217Z" fill="white"/>
<path d="M77.4055 130.144C75.741 130.144 74.3916 131.493 74.3916 133.158C74.3916 134.822 75.741 136.172 77.4055 136.172C79.07 136.172 80.4193 134.822 80.4193 133.158C80.4193 131.493 79.07 130.144 77.4055 130.144Z" fill="white"/>
<path d="M101.573 91.8935C105.961 91.8935 109.519 95.4511 109.519 99.8396C109.519 104.228 105.961 107.786 101.573 107.786C97.1844 107.786 93.6268 104.228 93.6268 99.8396C93.6268 95.4511 97.1844 91.8935 101.573 91.8935Z" fill="#54AEFF"/>
<path d="M226.791 86.6073C228.25 88.0667 230.616 88.0668 232.076 86.6073C233.535 85.1479 233.535 82.7817 232.076 81.3223C230.616 79.8629 228.25 79.8629 226.791 81.3223C225.331 82.7817 225.331 85.1479 226.791 86.6073Z" fill="white"/>
<path d="M281.553 169.352C278.939 166.737 278.939 162.499 281.553 159.884C284.167 157.27 288.406 157.27 291.02 159.884C293.635 162.499 293.635 166.737 291.02 169.352C288.406 171.966 284.167 171.966 281.553 169.352Z" fill="#54AEFF"/>
</g>
</g>
<defs>
<clipPath id="clip0_3002_5117">
<rect width="390" height="260" fill="white"/>
</clipPath>
</defs>
</svg>
