<svg width="24" height="24" viewBox="0 0 24 24" fill="none" xmlns="http://www.w3.org/2000/svg">
<path d="M11.999 6.37499C11.847 6.37499 11.724 6.49799 11.726 6.64999C11.726 6.80199 11.849 6.92499 12.001 6.92499C12.153 6.92499 12.276 6.80199 12.276 6.64999C12.274 6.49799 12.152 6.37499 11.999 6.37499" stroke="#24292F" stroke-width="1.5" stroke-linecap="round" stroke-linejoin="round"/>
<path d="M6.92401 11.999C6.92401 11.847 6.80101 11.724 6.65001 11.726C6.49801 11.726 6.37501 11.849 6.37501 12.001C6.37501 12.153 6.49801 12.276 6.65001 12.276C6.80201 12.276 6.92401 12.152 6.92401 11.999" stroke="#24292F" stroke-width="1.5" stroke-linecap="round" stroke-linejoin="round"/>
<path d="M15.977 8.02201C15.87 7.91501 15.696 7.91501 15.59 8.02301C15.483 8.13001 15.483 8.30401 15.59 8.41101C15.697 8.51801 15.871 8.51801 15.978 8.41101C16.085 8.30301 16.085 8.13001 15.977 8.02201" stroke="#24292F" stroke-width="1.5" stroke-linecap="round" stroke-linejoin="round"/>
<path d="M8.41001 15.589C8.30301 15.482 8.12901 15.482 8.02301 15.59C7.91601 15.697 7.91601 15.871 8.02301 15.978C8.13001 16.085 8.30401 16.085 8.41101 15.978C8.51801 15.871 8.51801 15.697 8.41001 15.589" stroke="#24292F" stroke-width="1.5" stroke-linecap="round" stroke-linejoin="round"/>
<path d="M8.41099 8.41C8.51799 8.303 8.51799 8.129 8.40999 8.023C8.30299 7.916 8.12899 7.916 8.02199 8.023C7.91499 8.13 7.91499 8.304 8.02199 8.411C8.12899 8.518 8.30299 8.518 8.41099 8.41" stroke="#24292F" stroke-width="1.5" stroke-linecap="round" stroke-linejoin="round"/>
<path fill-rule="evenodd" clip-rule="evenodd" d="M12 21C6.945 21 2.863 16.832 3.004 11.745C3.134 7.049 7.049 3.134 11.745 3.004C16.832 2.863 21 6.945 21 12V13C21 14.105 20.105 15 19 15H16.937C15.608 15 14.649 16.272 15.014 17.549L15.271 18.45C15.637 19.728 14.677 21 13.349 21H12Z" stroke="#24292F" stroke-width="1.5" stroke-linecap="round" stroke-linejoin="round"/>
</svg>
