<svg width="24" height="24" viewBox="0 0 24 24" fill="none" xmlns="http://www.w3.org/2000/svg">
<path d="M13 9.00021H17" stroke="#24292F" stroke-width="1.5" stroke-linecap="round" stroke-linejoin="round"/>
<path d="M7 8.72629L7.919 9.55463L9.769 7.88794" stroke="#24292F" stroke-width="1.5" stroke-linecap="round" stroke-linejoin="round"/>
<path d="M10 20H8C5.23858 20 3 17.7614 3 15V7C3 4.23858 5.23858 2 8 2H16C17.3261 2 18.5979 2.52678 19.5355 3.46447C20.4732 4.40215 21 5.67392 21 7V10" stroke="#24292F" stroke-width="1.5" stroke-linecap="round" stroke-linejoin="round"/>
<path d="M7 13.7263L7.919 14.5546L9.769 12.8879" stroke="#24292F" stroke-width="1.5" stroke-linecap="round" stroke-linejoin="round"/>
<path d="M14 13.8999V19.6003C14.001 20.3732 15.5668 21.0001 17.4995 21.0001C19.4322 21.0001 20.998 20.3732 20.999 19.6003V13.8999" stroke="#24292F" stroke-width="1.5" stroke-linecap="round" stroke-linejoin="round"/>
<path d="M14.001 16.75C14.001 17.5232 15.5678 18.1504 17.5005 18.1504C19.4332 18.1504 21 17.5232 21 16.75" stroke="#24292F" stroke-width="1.5" stroke-linecap="round" stroke-linejoin="round"/>
<path d="M14.001 13.8998C14.001 14.6727 15.5678 15.2996 17.5005 15.2996C19.4332 15.2996 20.999 14.6727 20.999 13.8998C20.999 13.1259 19.4312 12.5 17.4995 12.5C15.5678 12.5 14.001 13.1269 14 13.8998" stroke="#24292F" stroke-width="1.5" stroke-linecap="round" stroke-linejoin="round"/>
</svg>
